<svg xmlns="http://www.w3.org/2000/svg" viewBox="0 0 56.41 40"><defs><style>.d55a6b5b-2208-460d-85db-195baa163ee9{fill:none;stroke:#000;stroke-width:3px;}</style></defs><title>NOR</title><g id="c2cf1b60-0b66-432f-8359-3de2fea257e3" data-name="Capa 2"><g id="a4e78827-314f-4881-ac54-c7e80a6ed568" data-name="Capa 1"><path d="M0,0,2,2.44A30,30,0,0,1,7.66,20,30,30,0,0,1,2,37.56L0,40H17.16a34.61,34.61,0,0,0,13.63-2.41c5.94-2.43,12.54-7.34,17.69-16.87L47.16,20l1.31-.72C38.17.22,21.91,0,17.16,0ZM5.88,3H17.16c4.68,0,18.29-.13,28,17C40.36,28.43,34.6,32.68,29.41,34.81A30.53,30.53,0,0,1,17.16,37H5.91a33,33,0,0,0,4.75-17A32.87,32.87,0,0,0,5.88,3Z"/><path class="d55a6b5b-2208-460d-85db-195baa163ee9" d="M54.91,20a4,4,0,1,1-4-4A4,4,0,0,1,54.91,20Z"/></g></g></svg>