<svg xmlns="http://www.w3.org/2000/svg" viewBox="0 0 48.47 40"><title>OR</title><g id="3a4ac132-94ca-4f64-afae-2b73aa758875" data-name="Capa 2"><g id="27cea1d5-bb05-4a8a-ba3b-d772fd9da996" data-name="Capa 1"><path d="M0,0,2,2.44A30,30,0,0,1,7.66,20,30,30,0,0,1,2,37.56L0,40H17.16a34.61,34.61,0,0,0,13.63-2.41c5.94-2.43,12.54-7.34,17.69-16.87L47.16,20l1.31-.72C38.17.22,21.91,0,17.16,0ZM5.88,3H17.16c4.68,0,18.29-.13,28,17C40.36,28.43,34.6,32.68,29.41,34.81A30.53,30.53,0,0,1,17.16,37H5.91a33,33,0,0,0,4.75-17A32.87,32.87,0,0,0,5.88,3Z"/></g></g></svg>