<svg xmlns="http://www.w3.org/2000/svg" viewBox="0 0 62.16 40"><defs><style>.b8c62eee-7983-47fb-b703-87a605e36031{fill:none;stroke:#000;stroke-width:3px;}</style></defs><title>XNOR</title><g id="f19507c6-b6e0-4831-8c8b-d87780537de8" data-name="Capa 2"><g id="69bd53b3-58cd-438a-97e0-63d829366d68" data-name="Capa 1"><path d="M5.91,37c-1.6,2.64-2.25,3-2.25,3H0l2-2.44A30,30,0,0,0,7.66,20,30,30,0,0,0,2,2.44L0,0H3.66A20.22,20.22,0,0,1,5.88,3a32.87,32.87,0,0,1,4.78,17A33.23,33.23,0,0,1,5.91,37Z"/><path d="M5.75,0l2,2.44A30,30,0,0,1,13.41,20,30,30,0,0,1,7.75,37.56L5.75,40H22.91a34.61,34.61,0,0,0,13.63-2.41c5.94-2.43,12.54-7.34,17.69-16.87L52.91,20l1.31-.72C43.92.22,27.66,0,22.91,0Zm5.88,3H22.91c4.68,0,18.29-.13,28,17-4.77,8.43-10.52,12.68-15.72,14.81A30.53,30.53,0,0,1,22.91,37H11.66a33,33,0,0,0,4.75-17A32.87,32.87,0,0,0,11.63,3Z"/><path class="b8c62eee-7983-47fb-b703-87a605e36031" d="M60.66,20a4,4,0,1,1-4-4A4,4,0,0,1,60.66,20Z"/></g></g></svg>